<svg width="19" height="22" viewBox="0 0 19 22" fill="none" xmlns="http://www.w3.org/2000/svg">
<path d="M0.0703125 16.3203C0.0703125 17.0332 0.617188 17.502 1.54492 17.502H5.66602C5.74414 19.3867 7.21875 21.0371 9.2793 21.0371C11.3496 21.0371 12.8242 19.3965 12.9023 17.502H17.0234C17.9414 17.502 18.498 17.0332 18.498 16.3203C18.498 15.3438 17.502 14.4648 16.6621 13.5957C16.0176 12.9219 15.8418 11.5352 15.7637 10.4121C15.6953 6.56445 14.6992 4.08398 12.1016 3.14648C11.7695 1.86719 10.7246 0.861328 9.2793 0.861328C7.84375 0.861328 6.78906 1.86719 6.4668 3.14648C3.86914 4.08398 2.87305 6.56445 2.80469 10.4121C2.72656 11.5352 2.55078 12.9219 1.90625 13.5957C1.05664 14.4648 0.0703125 15.3438 0.0703125 16.3203ZM1.96484 16.0273V15.9102C2.14062 15.627 2.72656 15.0508 3.23438 14.4844C3.9375 13.7031 4.26953 12.4434 4.35742 10.5391C4.43555 6.27148 5.70508 4.91406 7.375 4.45508C7.61914 4.39648 7.75586 4.2793 7.76562 4.02539C7.79492 3.00977 8.38086 2.29688 9.2793 2.29688C10.1875 2.29688 10.7637 3.00977 10.8027 4.02539C10.8125 4.2793 10.9395 4.39648 11.1836 4.45508C12.8633 4.91406 14.1328 6.27148 14.2109 10.5391C14.2988 12.4434 14.6309 13.7031 15.3242 14.4844C15.8418 15.0508 16.418 15.627 16.5938 15.9102V16.0273H1.96484ZM7.18945 17.502H11.3789C11.3008 18.8301 10.4609 19.6602 9.2793 19.6602C8.10742 19.6602 7.25781 18.8301 7.18945 17.502Z" fill="#707070"/>
</svg>
