<svg width="20" height="20" viewBox="0 0 20 20" fill="none" xmlns="http://www.w3.org/2000/svg">
<path d="M1.48047 8.19141C0.132812 8.81641 0.503906 10.623 1.98828 10.6328L9.10742 10.6621C9.22461 10.6621 9.25391 10.6914 9.25391 10.8086L9.27344 17.8691C9.2832 19.4121 11.1191 19.6855 11.7734 18.2695L18.9902 2.75195C19.6543 1.30664 18.5215 0.28125 17.0859 0.955078L1.48047 8.19141ZM3.17969 9.10938C3.14062 9.10938 3.13086 9.07031 3.17969 9.05078L17.2129 2.625C17.2812 2.5957 17.3105 2.61523 17.2812 2.69336L10.8164 16.7168C10.8066 16.7559 10.7676 16.7461 10.7676 16.707L10.8164 9.80273C10.8164 9.37305 10.5137 9.07031 10.0742 9.07031L3.17969 9.10938Z" fill="#2B49AD"/>
</svg>
