<svg width="21" height="21" viewBox="0 0 21 21" fill="none" xmlns="http://www.w3.org/2000/svg">
<path d="M10.709 20.9102C16.1582 20.9102 20.6699 16.3887 20.6699 10.9492C20.6699 5.5 16.1484 0.988281 10.6992 0.988281C5.25977 0.988281 0.748047 5.5 0.748047 10.9492C0.748047 16.3887 5.26953 20.9102 10.709 20.9102ZM10.709 19.25C6.09961 19.25 2.41797 15.5586 2.41797 10.9492C2.41797 6.33984 6.08984 2.64844 10.6992 2.64844C15.3086 2.64844 19 6.33984 19.0098 10.9492C19.0195 15.5586 15.3184 19.25 10.709 19.25ZM5.60156 12.0039H10.6992C11.0801 12.0039 11.3828 11.7109 11.3828 11.3203V4.73828C11.3828 4.35742 11.0801 4.06445 10.6992 4.06445C10.3184 4.06445 10.0254 4.35742 10.0254 4.73828V10.6465H5.60156C5.21094 10.6465 4.91797 10.9395 4.91797 11.3203C4.91797 11.7109 5.21094 12.0039 5.60156 12.0039Z" fill="#E0E0E0"/>
</svg>
